<svg width="21" height="21" viewBox="0 0 21 21" fill="none" xmlns="http://www.w3.org/2000/svg">
<g id="Icon">
<path id="Vector" fill-rule="evenodd" clip-rule="evenodd" d="M12.0916 1.13702C11.7602 1 11.3401 1 10.5 1C9.65986 1 9.23979 1 8.90843 1.13702C8.46662 1.31971 8.11561 1.67012 7.9326 2.11117C7.84906 2.31251 7.81637 2.54665 7.80358 2.88819C7.78478 3.39011 7.52693 3.8547 7.0912 4.10584C6.65548 4.35697 6.12352 4.34759 5.6787 4.11288C5.376 3.95317 5.15653 3.86436 4.9401 3.83591C4.46598 3.7736 3.98648 3.90186 3.60709 4.19248C3.32254 4.41044 3.11251 4.77361 2.69244 5.49994C2.27237 6.22627 2.06234 6.58944 2.01552 6.94441C1.9531 7.41772 2.08158 7.89639 2.3727 8.27513C2.50558 8.448 2.69232 8.59332 2.98216 8.77512C3.40824 9.04239 3.68239 9.49767 3.68237 10C3.68234 10.5023 3.40819 10.9575 2.98215 11.2248C2.69227 11.4066 2.5055 11.5519 2.37261 11.7248C2.08149 12.1035 1.95301 12.5822 2.01543 13.0555C2.06225 13.4105 2.27228 13.7737 2.69235 14.5C3.11242 15.2263 3.32246 15.5895 3.607 15.8075C3.98639 16.0981 4.46589 16.2263 4.94001 16.164C5.15643 16.1356 5.37589 16.0468 5.67856 15.8871C6.12341 15.6524 6.65541 15.643 7.09116 15.8941C7.52692 16.1453 7.78477 16.6099 7.80358 17.1119C7.81637 17.4534 7.84907 17.6875 7.9326 17.8888C8.11561 18.3299 8.46662 18.6803 8.90843 18.863C9.23979 19 9.65986 19 10.5 19C11.3401 19 11.7602 19 12.0916 18.863C12.5334 18.6803 12.8844 18.3299 13.0674 17.8888C13.1509 17.6875 13.1836 17.4533 13.1964 17.1118C13.2152 16.6099 13.473 16.1453 13.9087 15.8941C14.3445 15.6429 14.8765 15.6523 15.3214 15.887C15.624 16.0467 15.8435 16.1355 16.0599 16.164C16.534 16.2263 17.0135 16.098 17.3929 15.8074C17.6775 15.5894 17.8875 15.2263 18.3076 14.4999C18.7276 13.7736 18.9377 13.4104 18.9845 13.0555C19.0469 12.5822 18.9184 12.1035 18.6273 11.7247C18.4944 11.5519 18.3077 11.4065 18.0178 11.2247C17.5917 10.9575 17.3176 10.5022 17.3176 9.99992C17.3177 9.49766 17.5918 9.04247 18.0178 8.77527C18.3077 8.59343 18.4945 8.44809 18.6274 8.27519C18.9185 7.89645 19.047 7.41778 18.9846 6.94448C18.9378 6.5895 18.7277 6.22633 18.3076 5.5C17.8876 4.77367 17.6775 4.4105 17.393 4.19254C17.0136 3.90192 16.5341 3.77366 16.06 3.83598C15.8436 3.86442 15.6241 3.95322 15.3214 4.11292C14.8766 4.34763 14.3446 4.35702 13.9088 4.10587C13.4731 3.85471 13.2152 3.39009 13.1964 2.88814C13.1836 2.54663 13.1509 2.3125 13.0674 2.11117C12.8844 1.67012 12.5334 1.31971 12.0916 1.13702ZM10.5 12.7C11.9937 12.7 13.2046 11.4912 13.2046 10C13.2046 8.50883 11.9937 7.3 10.5 7.3C9.00626 7.3 7.79535 8.50883 7.79535 10C7.79535 11.4912 9.00626 12.7 10.5 12.7Z" fill="white" fill-opacity="0.5"/>
</g>
</svg>
