<svg width="21" height="21" viewBox="0 0 21 21" fill="none" xmlns="http://www.w3.org/2000/svg">
<g id="Icon">
<g id="Vector">
<path d="M14.4107 1.91058C14.1667 2.15466 14.1667 2.5475 14.1667 3.33317V14.1665C14.1667 14.9522 14.1667 15.345 14.4107 15.5891C14.6548 15.8332 15.0477 15.8332 15.8333 15.8332C16.619 15.8332 17.0118 15.8332 17.2559 15.5891C17.5 15.345 17.5 14.9522 17.5 14.1665V3.33317C17.5 2.5475 17.5 2.15466 17.2559 1.91058C17.0118 1.6665 16.619 1.6665 15.8333 1.6665C15.0477 1.6665 14.6548 1.6665 14.4107 1.91058Z" fill="url(#paint0_linear_295_1125)"/>
<path d="M8.33333 5.83317C8.33333 5.0475 8.33333 4.65466 8.57741 4.41058C8.82149 4.1665 9.21433 4.1665 10 4.1665C10.7857 4.1665 11.1785 4.1665 11.4226 4.41058C11.6667 4.65466 11.6667 5.0475 11.6667 5.83317V14.1665C11.6667 14.9522 11.6667 15.345 11.4226 15.5891C11.1785 15.8332 10.7857 15.8332 10 15.8332C9.21433 15.8332 8.82149 15.8332 8.57741 15.5891C8.33333 15.345 8.33333 14.9522 8.33333 14.1665V5.83317Z" fill="url(#paint1_linear_295_1125)"/>
<path d="M2.74408 7.74392C2.5 7.98799 2.5 8.38083 2.5 9.1665V14.1665C2.5 14.9522 2.5 15.345 2.74408 15.5891C2.98816 15.8332 3.38099 15.8332 4.16667 15.8332C4.95234 15.8332 5.34518 15.8332 5.58926 15.5891C5.83333 15.345 5.83333 14.9522 5.83333 14.1665V9.1665C5.83333 8.38083 5.83333 7.98799 5.58926 7.74392C5.34518 7.49984 4.95234 7.49984 4.16667 7.49984C3.38099 7.49984 2.98816 7.49984 2.74408 7.74392Z" fill="url(#paint2_linear_295_1125)"/>
<path d="M2.5 17.7082C2.15482 17.7082 1.875 17.988 1.875 18.3332C1.875 18.6783 2.15482 18.9582 2.5 18.9582H17.5C17.8452 18.9582 18.125 18.6783 18.125 18.3332C18.125 17.988 17.8452 17.7082 17.5 17.7082H2.5Z" fill="url(#paint3_linear_295_1125)"/>
</g>
</g>
<defs>
<linearGradient id="paint0_linear_295_1125" x1="10" y1="1.6665" x2="10" y2="18.9582" gradientUnits="userSpaceOnUse">
<stop stop-color="#5A69ED"/>
<stop offset="1" stop-color="#3481A3"/>
</linearGradient>
<linearGradient id="paint1_linear_295_1125" x1="10" y1="1.6665" x2="10" y2="18.9582" gradientUnits="userSpaceOnUse">
<stop stop-color="#5A69ED"/>
<stop offset="1" stop-color="#3481A3"/>
</linearGradient>
<linearGradient id="paint2_linear_295_1125" x1="10" y1="1.6665" x2="10" y2="18.9582" gradientUnits="userSpaceOnUse">
<stop stop-color="#5A69ED"/>
<stop offset="1" stop-color="#3481A3"/>
</linearGradient>
<linearGradient id="paint3_linear_295_1125" x1="10" y1="1.6665" x2="10" y2="18.9582" gradientUnits="userSpaceOnUse">
<stop stop-color="#5A69ED"/>
<stop offset="1" stop-color="#3481A3"/>
</linearGradient>
</defs>
</svg>
