<svg width="21" height="21" viewBox="0 0 21 21" fill="none" xmlns="http://www.w3.org/2000/svg">
<g id="Icon">
<path id="Symbol" d="M3 17.5768V2.93515C3 2.51422 3.12564 2.18146 3.37693 1.93686C3.63392 1.68658 3.99372 1.56143 4.45631 1.56143H5.14163C6.65505 1.56143 8.03998 1.43629 9.2964 1.18601C10.5528 0.935722 11.8292 0.600114 13.1256 0.179181C13.3084 0.122298 13.4769 0.0796359 13.6311 0.0511945C13.7853 0.0170648 13.928 0 14.0594 0C14.4363 0 14.7276 0.105233 14.9332 0.3157C15.1388 0.520478 15.2416 0.833333 15.2416 1.25427V1.59556H16.0468C17.3489 1.59556 18 2.26678 18 3.60922V16.7065C18 17.2355 17.9143 17.6394 17.743 17.9181C17.5774 18.1968 17.2376 18.4585 16.7236 18.7031C16.2439 18.9363 15.7184 19.1354 15.1473 19.3003C14.582 19.4653 13.9937 19.599 13.3826 19.7014C12.7716 19.8038 12.1519 19.8777 11.5237 19.9232C10.9012 19.9744 10.2901 20 9.69046 20C8.47973 20 7.37464 19.9033 6.37521 19.7099C5.3815 19.5222 4.51628 19.2691 3.77955 18.9505C3.46545 18.7969 3.257 18.6121 3.1542 18.3959C3.0514 18.1798 3 17.9067 3 17.5768ZM6.04112 8.02901C6.04112 8.16553 6.10965 8.23379 6.24672 8.23379C6.93775 8.23379 7.62307 8.19397 8.30268 8.11433C8.98801 8.0347 9.64477 7.92093 10.273 7.77304C10.9012 7.61945 11.4809 7.43458 12.012 7.21843C12.0919 7.1843 12.1319 7.12457 12.1319 7.03925V4.0273C12.1319 3.92491 12.0977 3.8595 12.0291 3.83106C11.9606 3.80262 11.9006 3.79977 11.8492 3.82253C10.9355 4.15245 10.0217 4.40842 9.10794 4.59044C8.19417 4.77247 7.24043 4.88055 6.24672 4.91468C6.10965 4.92605 6.04112 5.00284 6.04112 5.14505V8.02901ZM6.47801 18.541C7.03198 18.6149 7.57167 18.6661 8.09709 18.6945C8.6225 18.7287 9.15363 18.7457 9.69046 18.7457C10.4443 18.7457 11.201 18.6945 11.9606 18.5921C12.7259 18.4954 13.4569 18.3532 14.1536 18.1655C14.8561 17.9835 15.49 17.7702 16.0554 17.5256C16.301 17.4232 16.4552 17.3094 16.518 17.1843C16.5865 17.0592 16.6208 16.8686 16.6208 16.6126V3.60922C16.6208 3.18259 16.4323 2.96928 16.0554 2.96928H15.2416V14.8635C15.2416 15.2389 15.1959 15.5233 15.1045 15.7167C15.0131 15.9044 14.8675 16.0722 14.6676 16.2201C14.245 16.5444 13.7396 16.843 13.1513 17.116C12.5631 17.3891 11.9121 17.628 11.1982 17.8328C10.49 18.0375 9.73615 18.1997 8.93661 18.3191C8.14278 18.4443 7.32324 18.5182 6.47801 18.541Z" fill="url(#paint0_linear_295_369)"/>
</g>
<defs>
<linearGradient id="paint0_linear_295_369" x1="10.5" y1="0" x2="10.5" y2="20" gradientUnits="userSpaceOnUse">
<stop stop-color="#5A69ED"/>
<stop offset="1" stop-color="#3481A3"/>
</linearGradient>
</defs>
</svg>
